<mxfile host="Electron" modified="2024-10-14T14:18:57.770Z" agent="Mozilla/5.0 (Windows NT 10.0; Win64; x64) AppleWebKit/537.36 (KHTML, like Gecko) draw.io/24.1.0 Chrome/120.0.6099.109 Electron/28.1.0 Safari/537.36" etag="KY24tZadyHluQts-aTBR" version="24.1.0" type="device">
  <diagram name="Page-1" id="acsbL7JASMrRTYuctGgO">
    <mxGraphModel dx="818" dy="1672" grid="1" gridSize="10" guides="1" tooltips="1" connect="1" arrows="1" fold="1" page="1" pageScale="1" pageWidth="850" pageHeight="1100" math="0" shadow="0">
      <root>
        <mxCell id="0" />
        <mxCell id="1" parent="0" />
        <mxCell id="Bq7FcE38kekh25CNx1w1-1" value="&lt;font face=&quot;Lucida Console&quot;&gt;Student&lt;/font&gt;" style="shape=umlActor;verticalLabelPosition=bottom;verticalAlign=top;html=1;outlineConnect=0;hachureGap=4;fontFamily=Architects Daughter;fontSource=https%3A%2F%2Ffonts.googleapis.com%2Fcss%3Ffamily%3DArchitects%2BDaughter;" parent="1" vertex="1">
          <mxGeometry x="80" y="50" width="30" height="60" as="geometry" />
        </mxCell>
        <mxCell id="Bq7FcE38kekh25CNx1w1-2" value="UniPal App" style="rounded=1;whiteSpace=wrap;html=1;" parent="1" vertex="1">
          <mxGeometry x="280" y="80" width="110" height="40" as="geometry" />
        </mxCell>
        <mxCell id="Bq7FcE38kekh25CNx1w1-3" value="UniPal Server" style="rounded=1;whiteSpace=wrap;html=1;" parent="1" vertex="1">
          <mxGeometry x="550" y="80" width="110" height="40" as="geometry" />
        </mxCell>
        <mxCell id="Bq7FcE38kekh25CNx1w1-4" value="Admin" style="rounded=1;whiteSpace=wrap;html=1;" parent="1" vertex="1">
          <mxGeometry x="1010" y="70" width="110" height="40" as="geometry" />
        </mxCell>
        <mxCell id="Bq7FcE38kekh25CNx1w1-5" value="" style="html=1;points=[[0,0,0,0,5],[0,1,0,0,-5],[1,0,0,0,5],[1,1,0,0,-5]];perimeter=orthogonalPerimeter;outlineConnect=0;targetShapes=umlLifeline;portConstraint=eastwest;newEdgeStyle={&quot;curved&quot;:0,&quot;rounded&quot;:0};" parent="1" vertex="1">
          <mxGeometry x="90" y="168" width="10" height="372" as="geometry" />
        </mxCell>
        <mxCell id="Bq7FcE38kekh25CNx1w1-6" value="" style="html=1;points=[[0,0,0,0,5],[0,1,0,0,-5],[1,0,0,0,5],[1,1,0,0,-5]];perimeter=orthogonalPerimeter;outlineConnect=0;targetShapes=umlLifeline;portConstraint=eastwest;newEdgeStyle={&quot;curved&quot;:0,&quot;rounded&quot;:0};" parent="1" vertex="1">
          <mxGeometry x="330" y="168" width="10" height="542" as="geometry" />
        </mxCell>
        <mxCell id="Bq7FcE38kekh25CNx1w1-7" value="" style="html=1;points=[[0,0,0,0,5],[0,1,0,0,-5],[1,0,0,0,5],[1,1,0,0,-5]];perimeter=orthogonalPerimeter;outlineConnect=0;targetShapes=umlLifeline;portConstraint=eastwest;newEdgeStyle={&quot;curved&quot;:0,&quot;rounded&quot;:0};" parent="1" vertex="1">
          <mxGeometry x="610" y="190" width="10" height="330" as="geometry" />
        </mxCell>
        <mxCell id="Bq7FcE38kekh25CNx1w1-8" value="" style="endArrow=classic;html=1;rounded=0;" parent="1" edge="1">
          <mxGeometry width="50" height="50" relative="1" as="geometry">
            <mxPoint x="100" y="170" as="sourcePoint" />
            <mxPoint x="330" y="170" as="targetPoint" />
          </mxGeometry>
        </mxCell>
        <mxCell id="Bq7FcE38kekh25CNx1w1-9" value="" style="endArrow=classic;html=1;rounded=0;" parent="1" target="Bq7FcE38kekh25CNx1w1-7" edge="1">
          <mxGeometry width="50" height="50" relative="1" as="geometry">
            <mxPoint x="340" y="190" as="sourcePoint" />
            <mxPoint x="390" y="140" as="targetPoint" />
          </mxGeometry>
        </mxCell>
        <mxCell id="Bq7FcE38kekh25CNx1w1-10" value="Authentication Successful" style="html=1;verticalAlign=bottom;endArrow=open;dashed=1;endSize=8;curved=0;rounded=0;" parent="1" target="Bq7FcE38kekh25CNx1w1-6" edge="1">
          <mxGeometry relative="1" as="geometry">
            <mxPoint x="610" y="230" as="sourcePoint" />
            <mxPoint x="530" y="230" as="targetPoint" />
          </mxGeometry>
        </mxCell>
        <mxCell id="Bq7FcE38kekh25CNx1w1-11" value="" style="endArrow=classic;html=1;rounded=0;" parent="1" edge="1">
          <mxGeometry width="50" height="50" relative="1" as="geometry">
            <mxPoint x="330" y="300" as="sourcePoint" />
            <mxPoint x="100" y="300" as="targetPoint" />
          </mxGeometry>
        </mxCell>
        <mxCell id="Bq7FcE38kekh25CNx1w1-12" value="" style="endArrow=classic;html=1;rounded=0;" parent="1" edge="1">
          <mxGeometry width="50" height="50" relative="1" as="geometry">
            <mxPoint x="340" y="270" as="sourcePoint" />
            <mxPoint x="610" y="270" as="targetPoint" />
          </mxGeometry>
        </mxCell>
        <mxCell id="Bq7FcE38kekh25CNx1w1-13" value="Login" style="text;html=1;align=center;verticalAlign=middle;resizable=0;points=[];autosize=1;strokeColor=none;fillColor=none;" parent="1" vertex="1">
          <mxGeometry x="165" y="150" width="50" height="30" as="geometry" />
        </mxCell>
        <mxCell id="Bq7FcE38kekh25CNx1w1-14" value="Authenticate User" style="text;html=1;align=center;verticalAlign=middle;resizable=0;points=[];autosize=1;strokeColor=none;fillColor=none;" parent="1" vertex="1">
          <mxGeometry x="400" y="168" width="120" height="30" as="geometry" />
        </mxCell>
        <mxCell id="Bq7FcE38kekh25CNx1w1-15" value="Request for List of Universities" style="text;html=1;align=center;verticalAlign=middle;resizable=0;points=[];autosize=1;strokeColor=none;fillColor=none;" parent="1" vertex="1">
          <mxGeometry x="380" y="248" width="190" height="30" as="geometry" />
        </mxCell>
        <mxCell id="Bq7FcE38kekh25CNx1w1-16" value="Display List of Universities" style="text;html=1;align=center;verticalAlign=middle;resizable=0;points=[];autosize=1;strokeColor=none;fillColor=none;" parent="1" vertex="1">
          <mxGeometry x="130" y="278" width="160" height="30" as="geometry" />
        </mxCell>
        <mxCell id="Bq7FcE38kekh25CNx1w1-17" value="" style="endArrow=classic;html=1;rounded=0;" parent="1" target="Bq7FcE38kekh25CNx1w1-6" edge="1">
          <mxGeometry width="50" height="50" relative="1" as="geometry">
            <mxPoint x="100" y="340" as="sourcePoint" />
            <mxPoint x="150" y="290" as="targetPoint" />
          </mxGeometry>
        </mxCell>
        <mxCell id="Bq7FcE38kekh25CNx1w1-18" value="Choose University" style="text;html=1;align=center;verticalAlign=middle;resizable=0;points=[];autosize=1;strokeColor=none;fillColor=none;" parent="1" vertex="1">
          <mxGeometry x="150" y="320" width="120" height="30" as="geometry" />
        </mxCell>
        <mxCell id="Bq7FcE38kekh25CNx1w1-19" value="" style="endArrow=classic;html=1;rounded=0;" parent="1" target="Bq7FcE38kekh25CNx1w1-7" edge="1">
          <mxGeometry width="50" height="50" relative="1" as="geometry">
            <mxPoint x="340" y="360" as="sourcePoint" />
            <mxPoint x="390" y="310" as="targetPoint" />
          </mxGeometry>
        </mxCell>
        <mxCell id="Bq7FcE38kekh25CNx1w1-20" value="Request for list of amenities" style="text;html=1;align=center;verticalAlign=middle;resizable=0;points=[];autosize=1;strokeColor=none;fillColor=none;" parent="1" vertex="1">
          <mxGeometry x="400" y="335" width="170" height="30" as="geometry" />
        </mxCell>
        <mxCell id="Bq7FcE38kekh25CNx1w1-21" value="Retrieve List of amenities" style="html=1;verticalAlign=bottom;endArrow=open;dashed=1;endSize=8;curved=0;rounded=0;" parent="1" target="Bq7FcE38kekh25CNx1w1-6" edge="1">
          <mxGeometry relative="1" as="geometry">
            <mxPoint x="600" y="390" as="sourcePoint" />
            <mxPoint x="520" y="390" as="targetPoint" />
          </mxGeometry>
        </mxCell>
        <mxCell id="Bq7FcE38kekh25CNx1w1-22" value="" style="endArrow=classic;html=1;rounded=0;" parent="1" target="Bq7FcE38kekh25CNx1w1-5" edge="1">
          <mxGeometry width="50" height="50" relative="1" as="geometry">
            <mxPoint x="330" y="415" as="sourcePoint" />
            <mxPoint x="380" y="365" as="targetPoint" />
          </mxGeometry>
        </mxCell>
        <mxCell id="Bq7FcE38kekh25CNx1w1-23" value="Display List of amenities" style="text;html=1;align=center;verticalAlign=middle;resizable=0;points=[];autosize=1;strokeColor=none;fillColor=none;" parent="1" vertex="1">
          <mxGeometry x="135" y="388" width="150" height="30" as="geometry" />
        </mxCell>
        <mxCell id="Bq7FcE38kekh25CNx1w1-24" value="" style="endArrow=classic;html=1;rounded=0;" parent="1" target="Bq7FcE38kekh25CNx1w1-6" edge="1">
          <mxGeometry width="50" height="50" relative="1" as="geometry">
            <mxPoint x="100" y="460" as="sourcePoint" />
            <mxPoint x="150" y="410" as="targetPoint" />
          </mxGeometry>
        </mxCell>
        <mxCell id="Bq7FcE38kekh25CNx1w1-25" value="Chooses specific amenity" style="text;html=1;align=center;verticalAlign=middle;resizable=0;points=[];autosize=1;strokeColor=none;fillColor=none;" parent="1" vertex="1">
          <mxGeometry x="135" y="440" width="160" height="30" as="geometry" />
        </mxCell>
        <mxCell id="Bq7FcE38kekh25CNx1w1-26" value="" style="endArrow=classic;html=1;rounded=0;" parent="1" target="Bq7FcE38kekh25CNx1w1-7" edge="1">
          <mxGeometry width="50" height="50" relative="1" as="geometry">
            <mxPoint x="340" y="480" as="sourcePoint" />
            <mxPoint x="390" y="430" as="targetPoint" />
          </mxGeometry>
        </mxCell>
        <mxCell id="Bq7FcE38kekh25CNx1w1-27" value="Request for details of the amenities" style="text;html=1;align=center;verticalAlign=middle;resizable=0;points=[];autosize=1;strokeColor=none;fillColor=none;" parent="1" vertex="1">
          <mxGeometry x="370" y="460" width="210" height="30" as="geometry" />
        </mxCell>
        <mxCell id="Bq7FcE38kekh25CNx1w1-28" value="Retrieve details of amenities" style="html=1;verticalAlign=bottom;endArrow=open;dashed=1;endSize=8;curved=0;rounded=0;" parent="1" target="Bq7FcE38kekh25CNx1w1-6" edge="1">
          <mxGeometry relative="1" as="geometry">
            <mxPoint x="610" y="520" as="sourcePoint" />
            <mxPoint x="350" y="520" as="targetPoint" />
          </mxGeometry>
        </mxCell>
        <mxCell id="Bq7FcE38kekh25CNx1w1-30" value="" style="endArrow=classic;html=1;rounded=0;" parent="1" edge="1">
          <mxGeometry width="50" height="50" relative="1" as="geometry">
            <mxPoint x="330" y="540" as="sourcePoint" />
            <mxPoint x="100" y="540" as="targetPoint" />
          </mxGeometry>
        </mxCell>
        <mxCell id="Bq7FcE38kekh25CNx1w1-31" value="Display deatils of selected of amenities" style="text;html=1;align=center;verticalAlign=middle;resizable=0;points=[];autosize=1;strokeColor=none;fillColor=none;" parent="1" vertex="1">
          <mxGeometry x="100" y="520" width="230" height="30" as="geometry" />
        </mxCell>
        <mxCell id="b6ifalgiwZSf533ZK-6y-1" value="University&lt;div&gt;Blogger&lt;/div&gt;" style="shape=umlActor;verticalLabelPosition=bottom;verticalAlign=top;html=1;outlineConnect=0;" vertex="1" parent="1">
          <mxGeometry x="820" y="60" width="30" height="60" as="geometry" />
        </mxCell>
        <mxCell id="b6ifalgiwZSf533ZK-6y-2" value="" style="endArrow=none;dashed=1;html=1;rounded=0;strokeWidth=4;" edge="1" parent="1">
          <mxGeometry width="50" height="50" relative="1" as="geometry">
            <mxPoint x="1062.75" y="653" as="sourcePoint" />
            <mxPoint x="1067.25" y="153" as="targetPoint" />
          </mxGeometry>
        </mxCell>
        <mxCell id="b6ifalgiwZSf533ZK-6y-4" value="" style="endArrow=none;dashed=1;html=1;rounded=0;strokeWidth=5;" edge="1" parent="1" source="b6ifalgiwZSf533ZK-6y-5">
          <mxGeometry width="50" height="50" relative="1" as="geometry">
            <mxPoint x="834.5" y="525" as="sourcePoint" />
            <mxPoint x="834.5" y="175" as="targetPoint" />
          </mxGeometry>
        </mxCell>
        <mxCell id="b6ifalgiwZSf533ZK-6y-5" value="" style="html=1;points=[[0,0,0,0,5],[0,1,0,0,-5],[1,0,0,0,5],[1,1,0,0,-5]];perimeter=orthogonalPerimeter;outlineConnect=0;targetShapes=umlLifeline;portConstraint=eastwest;newEdgeStyle={&quot;curved&quot;:0,&quot;rounded&quot;:0};" vertex="1" parent="1">
          <mxGeometry x="830" y="550" width="10" height="80" as="geometry" />
        </mxCell>
        <mxCell id="b6ifalgiwZSf533ZK-6y-6" value="" style="endArrow=classic;html=1;rounded=0;entryX=1;entryY=0.788;entryDx=0;entryDy=0;entryPerimeter=0;" edge="1" parent="1">
          <mxGeometry width="50" height="50" relative="1" as="geometry">
            <mxPoint x="830" y="549.06" as="sourcePoint" />
            <mxPoint x="340" y="548.9960000000001" as="targetPoint" />
          </mxGeometry>
        </mxCell>
        <mxCell id="b6ifalgiwZSf533ZK-6y-7" value="Login" style="text;html=1;align=center;verticalAlign=middle;resizable=0;points=[];autosize=1;strokeColor=none;fillColor=none;" vertex="1" parent="1">
          <mxGeometry x="445" y="528" width="50" height="30" as="geometry" />
        </mxCell>
        <mxCell id="b6ifalgiwZSf533ZK-6y-8" value="" style="endArrow=classic;html=1;rounded=0;" edge="1" parent="1" target="b6ifalgiwZSf533ZK-6y-5">
          <mxGeometry width="50" height="50" relative="1" as="geometry">
            <mxPoint x="340" y="590" as="sourcePoint" />
            <mxPoint x="390" y="540" as="targetPoint" />
          </mxGeometry>
        </mxCell>
        <mxCell id="b6ifalgiwZSf533ZK-6y-9" value="Display Add blogs and events panel" style="text;html=1;align=center;verticalAlign=middle;resizable=0;points=[];autosize=1;strokeColor=none;fillColor=none;" vertex="1" parent="1">
          <mxGeometry x="435" y="568" width="210" height="30" as="geometry" />
        </mxCell>
        <mxCell id="b6ifalgiwZSf533ZK-6y-10" value="" style="endArrow=classic;html=1;rounded=0;" edge="1" parent="1" target="Bq7FcE38kekh25CNx1w1-6">
          <mxGeometry width="50" height="50" relative="1" as="geometry">
            <mxPoint x="830" y="620" as="sourcePoint" />
            <mxPoint x="880" y="570" as="targetPoint" />
          </mxGeometry>
        </mxCell>
        <mxCell id="b6ifalgiwZSf533ZK-6y-11" value="Adds blog and events" style="text;html=1;align=center;verticalAlign=middle;resizable=0;points=[];autosize=1;strokeColor=none;fillColor=none;" vertex="1" parent="1">
          <mxGeometry x="450" y="598" width="140" height="30" as="geometry" />
        </mxCell>
        <mxCell id="b6ifalgiwZSf533ZK-6y-12" value="" style="endArrow=none;dashed=1;html=1;rounded=0;strokeWidth=5;" edge="1" parent="1">
          <mxGeometry width="50" height="50" relative="1" as="geometry">
            <mxPoint x="95" y="622" as="sourcePoint" />
            <mxPoint x="94.5" y="540" as="targetPoint" />
          </mxGeometry>
        </mxCell>
        <mxCell id="b6ifalgiwZSf533ZK-6y-13" value="" style="html=1;points=[[0,0,0,0,5],[0,1,0,0,-5],[1,0,0,0,5],[1,1,0,0,-5]];perimeter=orthogonalPerimeter;outlineConnect=0;targetShapes=umlLifeline;portConstraint=eastwest;newEdgeStyle={&quot;curved&quot;:0,&quot;rounded&quot;:0};" vertex="1" parent="1">
          <mxGeometry x="90" y="620" width="10" height="20" as="geometry" />
        </mxCell>
        <mxCell id="b6ifalgiwZSf533ZK-6y-14" value="" style="endArrow=classic;html=1;rounded=0;entryX=1;entryY=1;entryDx=0;entryDy=-5;entryPerimeter=0;" edge="1" parent="1" target="b6ifalgiwZSf533ZK-6y-13">
          <mxGeometry width="50" height="50" relative="1" as="geometry">
            <mxPoint x="330" y="638" as="sourcePoint" />
            <mxPoint x="380" y="588" as="targetPoint" />
          </mxGeometry>
        </mxCell>
        <mxCell id="b6ifalgiwZSf533ZK-6y-15" value="Dispaly events and blogs" style="text;html=1;align=center;verticalAlign=middle;resizable=0;points=[];autosize=1;strokeColor=none;fillColor=none;" vertex="1" parent="1">
          <mxGeometry x="130" y="615" width="160" height="30" as="geometry" />
        </mxCell>
        <mxCell id="b6ifalgiwZSf533ZK-6y-16" value="" style="html=1;points=[[0,0,0,0,5],[0,1,0,0,-5],[1,0,0,0,5],[1,1,0,0,-5]];perimeter=orthogonalPerimeter;outlineConnect=0;targetShapes=umlLifeline;portConstraint=eastwest;newEdgeStyle={&quot;curved&quot;:0,&quot;rounded&quot;:0};" vertex="1" parent="1">
          <mxGeometry x="1060" y="650" width="10" height="60" as="geometry" />
        </mxCell>
        <mxCell id="b6ifalgiwZSf533ZK-6y-17" value="" style="endArrow=classic;html=1;rounded=0;" edge="1" parent="1">
          <mxGeometry width="50" height="50" relative="1" as="geometry">
            <mxPoint x="1060" y="650" as="sourcePoint" />
            <mxPoint x="340" y="650" as="targetPoint" />
          </mxGeometry>
        </mxCell>
        <mxCell id="b6ifalgiwZSf533ZK-6y-18" value="Login" style="text;html=1;align=center;verticalAlign=middle;resizable=0;points=[];autosize=1;strokeColor=none;fillColor=none;" vertex="1" parent="1">
          <mxGeometry x="515" y="628" width="50" height="30" as="geometry" />
        </mxCell>
        <mxCell id="b6ifalgiwZSf533ZK-6y-19" value="" style="endArrow=classic;html=1;rounded=0;" edge="1" parent="1" target="b6ifalgiwZSf533ZK-6y-16">
          <mxGeometry width="50" height="50" relative="1" as="geometry">
            <mxPoint x="340" y="680" as="sourcePoint" />
            <mxPoint x="390" y="630" as="targetPoint" />
          </mxGeometry>
        </mxCell>
        <mxCell id="b6ifalgiwZSf533ZK-6y-20" value="Displays users, categories in the UniPal System" style="text;html=1;align=center;verticalAlign=middle;resizable=0;points=[];autosize=1;strokeColor=none;fillColor=none;" vertex="1" parent="1">
          <mxGeometry x="480" y="658" width="280" height="30" as="geometry" />
        </mxCell>
        <mxCell id="b6ifalgiwZSf533ZK-6y-21" value="" style="endArrow=classic;html=1;rounded=0;entryX=1;entryY=1;entryDx=0;entryDy=-5;entryPerimeter=0;" edge="1" parent="1" source="b6ifalgiwZSf533ZK-6y-16" target="Bq7FcE38kekh25CNx1w1-6">
          <mxGeometry width="50" height="50" relative="1" as="geometry">
            <mxPoint x="1060" y="700" as="sourcePoint" />
            <mxPoint x="1110" y="650" as="targetPoint" />
          </mxGeometry>
        </mxCell>
        <mxCell id="b6ifalgiwZSf533ZK-6y-22" value="Updates the categories list" style="text;html=1;align=center;verticalAlign=middle;resizable=0;points=[];autosize=1;strokeColor=none;fillColor=none;" vertex="1" parent="1">
          <mxGeometry x="485" y="680" width="160" height="30" as="geometry" />
        </mxCell>
        <mxCell id="b6ifalgiwZSf533ZK-6y-23" value="&lt;font style=&quot;font-size: 20px;&quot;&gt;&lt;b&gt;UNIPAL SEQUENCE DIAGRAM&lt;/b&gt;&lt;/font&gt;" style="text;html=1;align=center;verticalAlign=middle;resizable=0;points=[];autosize=1;strokeColor=none;fillColor=none;" vertex="1" parent="1">
          <mxGeometry x="325" y="-30" width="320" height="40" as="geometry" />
        </mxCell>
      </root>
    </mxGraphModel>
  </diagram>
</mxfile>
